<?xml version="1.0" encoding="UTF-8"?>
<svg xmlns="http://www.w3.org/2000/svg" viewBox="0 0 708 144">
  <title>Modern carrier flight-deck paint</title>
  <g id="deck">
    <path
      fill="#23262c"
      d="M4 35 22 12h82l10 4 25-5 8-6c112-1 225-1 315 2 83 3 160 20 242 34v58c-70 9-137 23-199 33h-15l-8 7H248l-12-12-10 12-196-13-26-21Z"
    />
  </g>

  <g id="markings">
    <path
      fill="none"
      stroke="#e8edf5"
      stroke-width="1.8"
      stroke-linecap="round"
      stroke-linejoin="round"
      d="M8 36 25 16h78l11 4 27-5 8-6c111-1 223-1 312 2 82 3 158 20 239 33v51c-69 9-135 22-196 32h-16l-8 7H251l-15-14-12 14-191-13-25-19Zm19 31 566 8M245 106 601 44l-6 33-118 23-4 27M245 106v21h228M608 74l89-8M608 82l89-8"
    />
    <path
      fill="none"
      stroke="#e8edf5"
      stroke-width="2.1"
      stroke-linecap="butt"
      stroke-dasharray="18 16"
      d="M29 84 595 87"
    />
  </g>

  <g id="team">
    <path
      fill="#32d9c8"
      d="M94 58h39v8l-24 31H96l24-30H94Zm51 8 13-8h11v39h-12V70l-12 7Z"
    />
  </g>
</svg>
